# Tiled2Unity generated file. Do not modify by hand.
# Wavefront file for 'roof_mesh_0011.obj'

# Vertices (Count = 24)
v -624 -480 0
v -632 -480 0
v -632 -472 0
v -624 -472 0
v -632 -480 0
v -640 -480 0
v -640 -472 0
v -632 -472 0
v -640 -480 0
v -648 -480 0
v -648 -472 0
v -640 -472 0
v -648 -480 0
v -656 -480 0
v -656 -472 0
v -648 -472 0
v -656 -480 0
v -664 -480 0
v -664 -472 0
v -656 -472 0
v -664 -480 0
v -672 -480 0
v -672 -472 0
v -664 -472 0

# Texture cooridinates (Count = 4)
vt 0.6666667 0.25
vt 0.75 0.25
vt 0.75 0.3333333
vt 0.6666667 0.3333333

# Normal
vn 0 0 -1

# Mesh description
g roof_mesh_0011

# Faces
f 1/1/1 2/2/1 3/3/1 4/4/1
f 5/1/1 6/2/1 7/3/1 8/4/1
f 9/1/1 10/2/1 11/3/1 12/4/1
f 13/1/1 14/2/1 15/3/1 16/4/1
f 17/1/1 18/2/1 19/3/1 20/4/1
f 21/1/1 22/2/1 23/3/1 24/4/1

