# Tiled2Unity generated file. Do not modify by hand.
# Wavefront file for 'roof_mesh_0011.obj'

# Vertices (Count = 24)
v -1176 -384 0
v -1184 -384 0
v -1184 -376 0
v -1176 -376 0
v -1184 -384 0
v -1192 -384 0
v -1192 -376 0
v -1184 -376 0
v -1192 -384 0
v -1200 -384 0
v -1200 -376 0
v -1192 -376 0
v -1200 -384 0
v -1208 -384 0
v -1208 -376 0
v -1200 -376 0
v -1208 -384 0
v -1216 -384 0
v -1216 -376 0
v -1208 -376 0
v -1216 -384 0
v -1224 -384 0
v -1224 -376 0
v -1216 -376 0

# Texture cooridinates (Count = 4)
vt 0.5833333 0.5833334
vt 0.6666667 0.5833334
vt 0.6666667 0.6666666
vt 0.5833333 0.6666666

# Normal
vn 0 0 -1

# Mesh description
g roof_mesh_0011

# Faces
f 1/1/1 2/2/1 3/3/1 4/4/1
f 5/1/1 6/2/1 7/3/1 8/4/1
f 9/1/1 10/2/1 11/3/1 12/4/1
f 13/1/1 14/2/1 15/3/1 16/4/1
f 17/1/1 18/2/1 19/3/1 20/4/1
f 21/1/1 22/2/1 23/3/1 24/4/1

