# Tiled2Unity generated file. Do not modify by hand.
# Wavefront file for 'roof_mesh_0025.obj'

# Vertices (Count = 24)
v -2424 -464 0
v -2432 -464 0
v -2432 -456 0
v -2424 -456 0
v -2432 -464 0
v -2440 -464 0
v -2440 -456 0
v -2432 -456 0
v -2440 -464 0
v -2448 -464 0
v -2448 -456 0
v -2440 -456 0
v -2448 -464 0
v -2456 -464 0
v -2456 -456 0
v -2448 -456 0
v -2456 -464 0
v -2464 -464 0
v -2464 -456 0
v -2456 -456 0
v -2464 -464 0
v -2472 -464 0
v -2472 -456 0
v -2464 -456 0

# Texture cooridinates (Count = 6)
vt 0.6666667 0.25
vt 0.75 0.25
vt 0.75 0.3333333
vt 0.6666667 0.3333333
vt 0.8333333 0.25
vt 0.8333333 0.3333333

# Normal
vn 0 0 -1

# Mesh description
g roof_mesh_0025

# Faces
f 1/1/1 2/2/1 3/3/1 4/4/1
f 5/1/1 6/2/1 7/3/1 8/4/1
f 9/1/1 10/2/1 11/3/1 12/4/1
f 13/1/1 14/2/1 15/3/1 16/4/1
f 17/2/1 18/5/1 19/6/1 20/3/1
f 21/2/1 22/5/1 23/6/1 24/3/1

