# Tiled2Unity generated file. Do not modify by hand.
# Wavefront file for 'roof_mesh_0012.obj'

# Vertices (Count = 24)
v -992 -432 0
v -1000 -432 0
v -1000 -424 0
v -992 -424 0
v -1000 -432 0
v -1008 -432 0
v -1008 -424 0
v -1000 -424 0
v -1008 -432 0
v -1016 -432 0
v -1016 -424 0
v -1008 -424 0
v -1016 -432 0
v -1024 -432 0
v -1024 -424 0
v -1016 -424 0
v -1024 -432 0
v -1032 -432 0
v -1032 -424 0
v -1024 -424 0
v -1032 -432 0
v -1040 -432 0
v -1040 -424 0
v -1032 -424 0

# Texture cooridinates (Count = 4)
vt 0.5 0.5833334
vt 0.5833333 0.5833334
vt 0.5833333 0.6666666
vt 0.5 0.6666666

# Normal
vn 0 0 -1

# Mesh description
g roof_mesh_0012

# Faces
f 1/1/1 2/2/1 3/3/1 4/4/1
f 5/1/1 6/2/1 7/3/1 8/4/1
f 9/1/1 10/2/1 11/3/1 12/4/1
f 13/1/1 14/2/1 15/3/1 16/4/1
f 17/1/1 18/2/1 19/3/1 20/4/1
f 21/1/1 22/2/1 23/3/1 24/4/1

