# Tiled2Unity generated file. Do not modify by hand.
# Wavefront file for 'roof_mesh_0016.obj'

# Vertices (Count = 12)
v -1080 -816 0
v -1088 -816 0
v -1088 -808 0
v -1080 -808 0
v -1088 -816 0
v -1096 -816 0
v -1096 -808 0
v -1088 -808 0
v -1096 -816 0
v -1104 -816 0
v -1104 -808 0
v -1096 -808 0

# Texture cooridinates (Count = 4)
vt 0 0.75
vt 0.08333334 0.75
vt 0.08333334 0.8333333
vt 0 0.8333333

# Normal
vn 0 0 -1

# Mesh description
g roof_mesh_0016

# Faces
f 1/1/1 2/2/1 3/3/1 4/4/1
f 5/1/1 6/2/1 7/3/1 8/4/1
f 9/1/1 10/2/1 11/3/1 12/4/1

