# Tiled2Unity generated file. Do not modify by hand.
# Wavefront file for 'roof_mesh_0015.obj'

# Vertices (Count = 20)
v -1600 -432 0
v -1608 -432 0
v -1608 -424 0
v -1600 -424 0
v -1608 -432 0
v -1616 -432 0
v -1616 -424 0
v -1608 -424 0
v -1616 -432 0
v -1624 -432 0
v -1624 -424 0
v -1616 -424 0
v -1624 -432 0
v -1632 -432 0
v -1632 -424 0
v -1624 -424 0
v -1632 -432 0
v -1640 -432 0
v -1640 -424 0
v -1632 -424 0

# Texture cooridinates (Count = 4)
vt 0.5 0.5833334
vt 0.5833333 0.5833334
vt 0.5833333 0.6666666
vt 0.5 0.6666666

# Normal
vn 0 0 -1

# Mesh description
g roof_mesh_0015

# Faces
f 1/1/1 2/2/1 3/3/1 4/4/1
f 5/1/1 6/2/1 7/3/1 8/4/1
f 9/1/1 10/2/1 11/3/1 12/4/1
f 13/1/1 14/2/1 15/3/1 16/4/1
f 17/1/1 18/2/1 19/3/1 20/4/1

