# Tiled2Unity generated file. Do not modify by hand.
# Wavefront file for 'roof_mesh_0012.obj'

# Vertices (Count = 20)
v -1360 -408 0
v -1368 -408 0
v -1368 -400 0
v -1360 -400 0
v -1368 -408 0
v -1376 -408 0
v -1376 -400 0
v -1368 -400 0
v -1376 -408 0
v -1384 -408 0
v -1384 -400 0
v -1376 -400 0
v -1384 -408 0
v -1392 -408 0
v -1392 -400 0
v -1384 -400 0
v -1392 -408 0
v -1400 -408 0
v -1400 -400 0
v -1392 -400 0

# Texture cooridinates (Count = 4)
vt 0.5 0.5833334
vt 0.5833333 0.5833334
vt 0.5833333 0.6666666
vt 0.5 0.6666666

# Normal
vn 0 0 -1

# Mesh description
g roof_mesh_0012

# Faces
f 1/1/1 2/2/1 3/3/1 4/4/1
f 5/1/1 6/2/1 7/3/1 8/4/1
f 9/1/1 10/2/1 11/3/1 12/4/1
f 13/1/1 14/2/1 15/3/1 16/4/1
f 17/1/1 18/2/1 19/3/1 20/4/1

