# Tiled2Unity generated file. Do not modify by hand.
# Wavefront file for 'roof_mesh_0016.obj'

# Vertices (Count = 24)
v -1328 -432 0
v -1336 -432 0
v -1336 -424 0
v -1328 -424 0
v -1336 -432 0
v -1344 -432 0
v -1344 -424 0
v -1336 -424 0
v -1344 -432 0
v -1352 -432 0
v -1352 -424 0
v -1344 -424 0
v -1352 -432 0
v -1360 -432 0
v -1360 -424 0
v -1352 -424 0
v -1360 -432 0
v -1368 -432 0
v -1368 -424 0
v -1360 -424 0
v -1368 -432 0
v -1376 -432 0
v -1376 -424 0
v -1368 -424 0

# Texture cooridinates (Count = 4)
vt 0.6666667 0.25
vt 0.75 0.25
vt 0.75 0.3333333
vt 0.6666667 0.3333333

# Normal
vn 0 0 -1

# Mesh description
g roof_mesh_0016

# Faces
f 1/1/1 2/2/1 3/3/1 4/4/1
f 5/1/1 6/2/1 7/3/1 8/4/1
f 9/1/1 10/2/1 11/3/1 12/4/1
f 13/1/1 14/2/1 15/3/1 16/4/1
f 17/1/1 18/2/1 19/3/1 20/4/1
f 21/1/1 22/2/1 23/3/1 24/4/1

