# Tiled2Unity generated file. Do not modify by hand.
# Wavefront file for 'roof_mesh_0031.obj'

# Vertices (Count = 24)
v -3192 -648 0
v -3200 -648 0
v -3200 -640 0
v -3192 -640 0
v -3200 -648 0
v -3208 -648 0
v -3208 -640 0
v -3200 -640 0
v -3208 -648 0
v -3216 -648 0
v -3216 -640 0
v -3208 -640 0
v -3216 -648 0
v -3224 -648 0
v -3224 -640 0
v -3216 -640 0
v -3224 -648 0
v -3232 -648 0
v -3232 -640 0
v -3224 -640 0
v -3232 -648 0
v -3240 -648 0
v -3240 -640 0
v -3232 -640 0

# Texture cooridinates (Count = 4)
vt 0.75 0.25
vt 0.8333333 0.25
vt 0.8333333 0.3333333
vt 0.75 0.3333333

# Normal
vn 0 0 -1

# Mesh description
g roof_mesh_0031

# Faces
f 1/1/1 2/2/1 3/3/1 4/4/1
f 5/1/1 6/2/1 7/3/1 8/4/1
f 9/1/1 10/2/1 11/3/1 12/4/1
f 13/1/1 14/2/1 15/3/1 16/4/1
f 17/1/1 18/2/1 19/3/1 20/4/1
f 21/1/1 22/2/1 23/3/1 24/4/1

