# Tiled2Unity generated file. Do not modify by hand.
# Wavefront file for 'roof_mesh_0022.obj'

# Vertices (Count = 24)
v -2128 -384 0
v -2136 -384 0
v -2136 -376 0
v -2128 -376 0
v -2136 -384 0
v -2144 -384 0
v -2144 -376 0
v -2136 -376 0
v -2144 -384 0
v -2152 -384 0
v -2152 -376 0
v -2144 -376 0
v -2152 -384 0
v -2160 -384 0
v -2160 -376 0
v -2152 -376 0
v -2160 -384 0
v -2168 -384 0
v -2168 -376 0
v -2160 -376 0
v -2168 -384 0
v -2176 -384 0
v -2176 -376 0
v -2168 -376 0

# Texture cooridinates (Count = 6)
vt 0.6666667 0.25
vt 0.75 0.25
vt 0.75 0.3333333
vt 0.6666667 0.3333333
vt 0.8333333 0.25
vt 0.8333333 0.3333333

# Normal
vn 0 0 -1

# Mesh description
g roof_mesh_0022

# Faces
f 1/1/1 2/2/1 3/3/1 4/4/1
f 5/1/1 6/2/1 7/3/1 8/4/1
f 9/1/1 10/2/1 11/3/1 12/4/1
f 13/1/1 14/2/1 15/3/1 16/4/1
f 17/2/1 18/5/1 19/6/1 20/3/1
f 21/2/1 22/5/1 23/6/1 24/3/1

