# Tiled2Unity generated file. Do not modify by hand.
# Wavefront file for 'roof_mesh_0017.obj'

# Vertices (Count = 16)
v -1032 -792 0
v -1040 -792 0
v -1040 -784 0
v -1032 -784 0
v -1040 -792 0
v -1048 -792 0
v -1048 -784 0
v -1040 -784 0
v -1048 -792 0
v -1056 -792 0
v -1056 -784 0
v -1048 -784 0
v -1056 -792 0
v -1064 -792 0
v -1064 -784 0
v -1056 -784 0

# Texture cooridinates (Count = 4)
vt 0 0.75
vt 0.08333334 0.75
vt 0.08333334 0.8333333
vt 0 0.8333333

# Normal
vn 0 0 -1

# Mesh description
g roof_mesh_0017

# Faces
f 1/1/1 2/2/1 3/3/1 4/4/1
f 5/1/1 6/2/1 7/3/1 8/4/1
f 9/1/1 10/2/1 11/3/1 12/4/1
f 13/1/1 14/2/1 15/3/1 16/4/1

