# Wavefront OBJ file automatically generated by Tiled2Unity

# Vertices (Count = 167)
v -336 -240 0
v -528 -240 0
v -528 -112 0
v -336 -112 0
v -720 -240 0
v -720 -112 0
v -336 -368 0
v -528 -368 0
v -720 -368 0
v -336 -144 0
v -352 -144 0
v -352 -128 0
v -336 -128 0
v -368 -144 0
v -368 -128 0
v -384 -144 0
v -384 -128 0
v -400 -144 0
v -400 -128 0
v -416 -144 0
v -416 -128 0
v -432 -144 0
v -432 -128 0
v -448 -144 0
v -448 -128 0
v -464 -144 0
v -464 -128 0
v -480 -144 0
v -480 -128 0
v -496 -144 0
v -496 -128 0
v -512 -144 0
v -512 -128 0
v -528 -144 0
v -528 -128 0
v -544 -144 0
v -544 -128 0
v -560 -144 0
v -560 -128 0
v -576 -144 0
v -576 -128 0
v -592 -144 0
v -592 -128 0
v -608 -144 0
v -608 -128 0
v -624 -144 0
v -624 -128 0
v -640 -144 0
v -640 -128 0
v -656 -144 0
v -656 -128 0
v -672 -144 0
v -672 -128 0
v -688 -144 0
v -688 -128 0
v -704 -144 0
v -704 -128 0
v -720 -144 0
v -720 -128 0
v -336 -160 0
v -352 -160 0
v -704 -160 0
v -720 -160 0
v -336 -176 0
v -352 -176 0
v -704 -176 0
v -720 -176 0
v -336 -192 0
v -352 -192 0
v -704 -192 0
v -720 -192 0
v -336 -208 0
v -352 -208 0
v -704 -208 0
v -720 -208 0
v -336 -224 0
v -352 -224 0
v -704 -224 0
v -720 -224 0
v -704 -240 0
v -704 -256 0
v -720 -256 0
v -704 -272 0
v -720 -272 0
v -704 -288 0
v -720 -288 0
v -336 -304 0
v -352 -304 0
v -352 -288 0
v -336 -288 0
v -368 -304 0
v -368 -288 0
v -384 -304 0
v -384 -288 0
v -400 -304 0
v -400 -288 0
v -416 -304 0
v -416 -288 0
v -432 -304 0
v -432 -288 0
v -704 -304 0
v -720 -304 0
v -336 -320 0
v -352 -320 0
v -368 -320 0
v -384 -320 0
v -400 -320 0
v -416 -320 0
v -432 -320 0
v -704 -320 0
v -720 -320 0
v -336 -336 0
v -352 -336 0
v -368 -336 0
v -384 -336 0
v -400 -336 0
v -416 -336 0
v -432 -336 0
v -704 -336 0
v -720 -336 0
v -336 -352 0
v -352 -352 0
v -368 -352 0
v -384 -352 0
v -400 -352 0
v -416 -352 0
v -432 -352 0
v -704 -352 0
v -720 -352 0
v -352 -368 0
v -368 -368 0
v -384 -368 0
v -400 -368 0
v -416 -368 0
v -432 -368 0
v -448 -368 0
v -448 -352 0
v -464 -368 0
v -464 -352 0
v -480 -368 0
v -480 -352 0
v -496 -368 0
v -496 -352 0
v -512 -368 0
v -512 -352 0
v -528 -352 0
v -544 -368 0
v -544 -352 0
v -560 -368 0
v -560 -352 0
v -576 -368 0
v -576 -352 0
v -592 -368 0
v -592 -352 0
v -608 -368 0
v -608 -352 0
v -624 -368 0
v -624 -352 0
v -640 -368 0
v -640 -352 0
v -656 -368 0
v -656 -352 0
v -672 -368 0
v -672 -352 0
v -688 -368 0
v -688 -352 0
v -704 -368 0

# Texture cooridinates (Count = 8)
vt 6.103516E-05 0.0001220703
vt 0.499939 0.0001220703
vt 0.499939 0.9998779
vt 6.103516E-05 0.9998779
vt 0.5000102 0.2500102
vt 0.5833232 0.2500102
vt 0.5833232 0.3333232
vt 0.5000102 0.3333232

# Normal
vn 0 0 -1

# Groups (Count = 2)

g mesh_0001
f 1/1/1 2/2/1 3/3/1 4/4/1
f 2/1/1 5/2/1 6/3/1 3/4/1
f 7/1/1 8/2/1 2/3/1 1/4/1
f 8/1/1 9/2/1 5/3/1 2/4/1

g mesh_0002
f 10/5/1 11/6/1 12/7/1 13/8/1
f 11/5/1 14/6/1 15/7/1 12/8/1
f 14/5/1 16/6/1 17/7/1 15/8/1
f 16/5/1 18/6/1 19/7/1 17/8/1
f 18/5/1 20/6/1 21/7/1 19/8/1
f 20/5/1 22/6/1 23/7/1 21/8/1
f 22/5/1 24/6/1 25/7/1 23/8/1
f 24/5/1 26/6/1 27/7/1 25/8/1
f 26/5/1 28/6/1 29/7/1 27/8/1
f 28/5/1 30/6/1 31/7/1 29/8/1
f 30/5/1 32/6/1 33/7/1 31/8/1
f 32/5/1 34/6/1 35/7/1 33/8/1
f 34/5/1 36/6/1 37/7/1 35/8/1
f 36/5/1 38/6/1 39/7/1 37/8/1
f 38/5/1 40/6/1 41/7/1 39/8/1
f 40/5/1 42/6/1 43/7/1 41/8/1
f 42/5/1 44/6/1 45/7/1 43/8/1
f 44/5/1 46/6/1 47/7/1 45/8/1
f 46/5/1 48/6/1 49/7/1 47/8/1
f 48/5/1 50/6/1 51/7/1 49/8/1
f 50/5/1 52/6/1 53/7/1 51/8/1
f 52/5/1 54/6/1 55/7/1 53/8/1
f 54/5/1 56/6/1 57/7/1 55/8/1
f 56/5/1 58/6/1 59/7/1 57/8/1
f 60/5/1 61/6/1 11/7/1 10/8/1
f 62/5/1 63/6/1 58/7/1 56/8/1
f 64/5/1 65/6/1 61/7/1 60/8/1
f 66/5/1 67/6/1 63/7/1 62/8/1
f 68/5/1 69/6/1 65/7/1 64/8/1
f 70/5/1 71/6/1 67/7/1 66/8/1
f 72/5/1 73/6/1 69/7/1 68/8/1
f 74/5/1 75/6/1 71/7/1 70/8/1
f 76/5/1 77/6/1 73/7/1 72/8/1
f 78/5/1 79/6/1 75/7/1 74/8/1
f 80/5/1 5/6/1 79/7/1 78/8/1
f 81/5/1 82/6/1 5/7/1 80/8/1
f 83/5/1 84/6/1 82/7/1 81/8/1
f 85/5/1 86/6/1 84/7/1 83/8/1
f 87/5/1 88/6/1 89/7/1 90/8/1
f 88/5/1 91/6/1 92/7/1 89/8/1
f 91/5/1 93/6/1 94/7/1 92/8/1
f 93/5/1 95/6/1 96/7/1 94/8/1
f 95/5/1 97/6/1 98/7/1 96/8/1
f 97/5/1 99/6/1 100/7/1 98/8/1
f 101/5/1 102/6/1 86/7/1 85/8/1
f 103/5/1 104/6/1 88/7/1 87/8/1
f 104/5/1 105/6/1 91/7/1 88/8/1
f 105/5/1 106/6/1 93/7/1 91/8/1
f 106/5/1 107/6/1 95/7/1 93/8/1
f 107/5/1 108/6/1 97/7/1 95/8/1
f 108/5/1 109/6/1 99/7/1 97/8/1
f 110/5/1 111/6/1 102/7/1 101/8/1
f 112/5/1 113/6/1 104/7/1 103/8/1
f 113/5/1 114/6/1 105/7/1 104/8/1
f 114/5/1 115/6/1 106/7/1 105/8/1
f 115/5/1 116/6/1 107/7/1 106/8/1
f 116/5/1 117/6/1 108/7/1 107/8/1
f 117/5/1 118/6/1 109/7/1 108/8/1
f 119/5/1 120/6/1 111/7/1 110/8/1
f 121/5/1 122/6/1 113/7/1 112/8/1
f 122/5/1 123/6/1 114/7/1 113/8/1
f 123/5/1 124/6/1 115/7/1 114/8/1
f 124/5/1 125/6/1 116/7/1 115/8/1
f 125/5/1 126/6/1 117/7/1 116/8/1
f 126/5/1 127/6/1 118/7/1 117/8/1
f 128/5/1 129/6/1 120/7/1 119/8/1
f 7/5/1 130/6/1 122/7/1 121/8/1
f 130/5/1 131/6/1 123/7/1 122/8/1
f 131/5/1 132/6/1 124/7/1 123/8/1
f 132/5/1 133/6/1 125/7/1 124/8/1
f 133/5/1 134/6/1 126/7/1 125/8/1
f 134/5/1 135/6/1 127/7/1 126/8/1
f 135/5/1 136/6/1 137/7/1 127/8/1
f 136/5/1 138/6/1 139/7/1 137/8/1
f 138/5/1 140/6/1 141/7/1 139/8/1
f 140/5/1 142/6/1 143/7/1 141/8/1
f 142/5/1 144/6/1 145/7/1 143/8/1
f 144/5/1 8/6/1 146/7/1 145/8/1
f 8/5/1 147/6/1 148/7/1 146/8/1
f 147/5/1 149/6/1 150/7/1 148/8/1
f 149/5/1 151/6/1 152/7/1 150/8/1
f 151/5/1 153/6/1 154/7/1 152/8/1
f 153/5/1 155/6/1 156/7/1 154/8/1
f 155/5/1 157/6/1 158/7/1 156/8/1
f 157/5/1 159/6/1 160/7/1 158/8/1
f 159/5/1 161/6/1 162/7/1 160/8/1
f 161/5/1 163/6/1 164/7/1 162/8/1
f 163/5/1 165/6/1 166/7/1 164/8/1
f 165/5/1 167/6/1 128/7/1 166/8/1
f 167/5/1 9/6/1 129/7/1 128/8/1

