# Wavefront OBJ file automatically generated by Tiled2Unity

# Vertices (Count = 308)
v 0 -96 0
v -192 -96 0
v -192 32 0
v 0 32 0
v -384 -96 0
v -384 32 0
v 0 -224 0
v -192 -224 0
v -384 -224 0
v 0 -352 0
v -192 -352 0
v -384 -352 0
v 0 -480 0
v -192 -480 0
v -384 -480 0
v -64 -128 0
v -80 -128 0
v -80 -112 0
v -64 -112 0
v -96 -128 0
v -96 -112 0
v -112 -128 0
v -112 -112 0
v -64 -144 0
v -80 -144 0
v -96 -144 0
v -112 -144 0
v -64 -160 0
v -80 -160 0
v -96 -160 0
v -112 -160 0
v -304 -432 0
v -320 -432 0
v -320 -416 0
v -304 -416 0
v -336 -432 0
v -336 -416 0
v -352 -432 0
v -352 -416 0
v -304 -448 0
v -320 -448 0
v -336 -448 0
v -352 -448 0
v -304 -464 0
v -320 -464 0
v -336 -464 0
v -352 -464 0
v 0 -16 0
v -16 -16 0
v -16 0 0
v 0 0 0
v -32 -16 0
v -32 0 0
v -48 -16 0
v -48 0 0
v -64 -16 0
v -64 0 0
v -80 -16 0
v -80 0 0
v -96 -16 0
v -96 0 0
v -112 -16 0
v -112 0 0
v -128 -16 0
v -128 0 0
v -144 -16 0
v -144 0 0
v -160 -16 0
v -160 0 0
v -176 -16 0
v -176 0 0
v -192 -16 0
v -192 0 0
v -208 -16 0
v -208 0 0
v -224 -16 0
v -224 0 0
v -240 -16 0
v -240 0 0
v -256 -16 0
v -256 0 0
v -272 -16 0
v -272 0 0
v -288 -16 0
v -288 0 0
v -304 -16 0
v -304 0 0
v -320 -16 0
v -320 0 0
v -336 -16 0
v -336 0 0
v -352 -16 0
v -352 0 0
v -368 -16 0
v -368 0 0
v -384 -16 0
v -384 0 0
v 0 -32 0
v -16 -32 0
v -368 -32 0
v -384 -32 0
v 0 -48 0
v -16 -48 0
v -368 -48 0
v -384 -48 0
v 0 -64 0
v -16 -64 0
v -368 -64 0
v -384 -64 0
v 0 -80 0
v -16 -80 0
v -368 -80 0
v -384 -80 0
v -16 -96 0
v -368 -96 0
v 0 -112 0
v -16 -112 0
v -192 -112 0
v -208 -112 0
v -208 -96 0
v -224 -112 0
v -224 -96 0
v -240 -112 0
v -240 -96 0
v -368 -112 0
v -384 -112 0
v 0 -128 0
v -16 -128 0
v -368 -128 0
v -384 -128 0
v 0 -144 0
v -16 -144 0
v -368 -144 0
v -384 -144 0
v 0 -160 0
v -16 -160 0
v -368 -160 0
v -384 -160 0
v 0 -176 0
v -16 -176 0
v -64 -176 0
v -80 -176 0
v -96 -176 0
v -112 -176 0
v -320 -176 0
v -336 -176 0
v -336 -160 0
v -320 -160 0
v -352 -176 0
v -352 -160 0
v -368 -176 0
v -384 -176 0
v 0 -192 0
v -16 -192 0
v -320 -192 0
v -336 -192 0
v -352 -192 0
v -368 -192 0
v -384 -192 0
v 0 -208 0
v -16 -208 0
v -320 -208 0
v -336 -208 0
v -352 -208 0
v -368 -208 0
v -384 -208 0
v -16 -224 0
v -320 -224 0
v -336 -224 0
v -352 -224 0
v -368 -224 0
v 0 -240 0
v -16 -240 0
v -192 -240 0
v -208 -240 0
v -208 -224 0
v -224 -240 0
v -224 -224 0
v -272 -240 0
v -288 -240 0
v -288 -224 0
v -272 -224 0
v -304 -240 0
v -304 -224 0
v -320 -240 0
v -336 -240 0
v -352 -240 0
v -368 -240 0
v -384 -240 0
v 0 -256 0
v -16 -256 0
v -336 -256 0
v -352 -256 0
v -368 -256 0
v -384 -256 0
v 0 -272 0
v -16 -272 0
v -368 -272 0
v -384 -272 0
v 0 -288 0
v -16 -288 0
v -368 -288 0
v -384 -288 0
v 0 -304 0
v -16 -304 0
v -368 -304 0
v -384 -304 0
v 0 -320 0
v -16 -320 0
v -64 -320 0
v -80 -320 0
v -80 -304 0
v -64 -304 0
v -96 -320 0
v -96 -304 0
v -112 -320 0
v -112 -304 0
v -368 -320 0
v -384 -320 0
v 0 -336 0
v -16 -336 0
v -176 -336 0
v -192 -336 0
v -192 -320 0
v -176 -320 0
v -208 -336 0
v -208 -320 0
v -224 -336 0
v -224 -320 0
v -368 -336 0
v -384 -336 0
v -16 -352 0
v -368 -352 0
v 0 -368 0
v -16 -368 0
v -368 -368 0
v -384 -368 0
v 0 -384 0
v -16 -384 0
v -368 -384 0
v -384 -384 0
v 0 -400 0
v -16 -400 0
v -368 -400 0
v -384 -400 0
v 0 -416 0
v -16 -416 0
v -224 -416 0
v -240 -416 0
v -240 -400 0
v -224 -400 0
v -256 -416 0
v -256 -400 0
v -272 -416 0
v -272 -400 0
v -368 -416 0
v -384 -416 0
v 0 -432 0
v -16 -432 0
v -368 -432 0
v -384 -432 0
v 0 -448 0
v -16 -448 0
v -368 -448 0
v -384 -448 0
v 0 -464 0
v -16 -464 0
v -368 -464 0
v -384 -464 0
v -16 -480 0
v -32 -480 0
v -32 -464 0
v -48 -480 0
v -48 -464 0
v -64 -480 0
v -64 -464 0
v -80 -480 0
v -80 -464 0
v -96 -480 0
v -96 -464 0
v -112 -480 0
v -112 -464 0
v -128 -480 0
v -128 -464 0
v -144 -480 0
v -144 -464 0
v -160 -480 0
v -160 -464 0
v -176 -480 0
v -176 -464 0
v -192 -464 0
v -208 -480 0
v -208 -464 0
v -224 -480 0
v -224 -464 0
v -240 -480 0
v -240 -464 0
v -256 -480 0
v -256 -464 0
v -272 -480 0
v -272 -464 0
v -288 -480 0
v -288 -464 0
v -304 -480 0
v -320 -480 0
v -336 -480 0
v -352 -480 0
v -368 -480 0

# Texture cooridinates (Count = 16)
vt 6.103516E-05 0.0001220703
vt 0.499939 0.0001220703
vt 0.499939 0.9998779
vt 6.103516E-05 0.9998779
vt 0.5000102 0.9166768
vt 0.5833232 0.9166768
vt 0.5833232 0.9999898
vt 0.5000102 0.9999898
vt 0.08334351 0.1666768
vt 0.1666565 0.1666768
vt 0.1666565 0.2499898
vt 0.08334351 0.2499898
vt 1.017253E-05 1.019239E-05
vt 0.08332316 1.019239E-05
vt 0.08332316 0.08332318
vt 1.017253E-05 0.08332318

# Normal
vn 0 0 -1

# Groups (Count = 3)

g mesh_0001
f 1/1/1 2/2/1 3/3/1 4/4/1
f 2/1/1 5/2/1 6/3/1 3/4/1
f 7/1/1 8/2/1 2/3/1 1/4/1
f 8/1/1 9/2/1 5/3/1 2/4/1
f 10/1/1 11/2/1 8/3/1 7/4/1
f 11/1/1 12/2/1 9/3/1 8/4/1
f 13/1/1 14/2/1 11/3/1 10/4/1
f 14/1/1 15/2/1 12/3/1 11/4/1

g mesh_0002
f 16/5/1 17/6/1 18/7/1 19/8/1
f 17/5/1 20/6/1 21/7/1 18/8/1
f 20/5/1 22/6/1 23/7/1 21/8/1
f 24/5/1 25/6/1 17/7/1 16/8/1
f 25/5/1 26/6/1 20/7/1 17/8/1
f 26/5/1 27/6/1 22/7/1 20/8/1
f 28/5/1 29/6/1 25/7/1 24/8/1
f 29/5/1 30/6/1 26/7/1 25/8/1
f 30/5/1 31/6/1 27/7/1 26/8/1
f 32/5/1 33/6/1 34/7/1 35/8/1
f 33/5/1 36/6/1 37/7/1 34/8/1
f 36/5/1 38/6/1 39/7/1 37/8/1
f 40/5/1 41/6/1 33/7/1 32/8/1
f 41/5/1 42/6/1 36/7/1 33/8/1
f 42/5/1 43/6/1 38/7/1 36/8/1
f 44/5/1 45/6/1 41/7/1 40/8/1
f 45/5/1 46/6/1 42/7/1 41/8/1
f 46/5/1 47/6/1 43/7/1 42/8/1

g mesh_0003
f 48/9/1 49/10/1 50/11/1 51/12/1
f 49/9/1 52/10/1 53/11/1 50/12/1
f 52/9/1 54/10/1 55/11/1 53/12/1
f 54/9/1 56/10/1 57/11/1 55/12/1
f 56/9/1 58/10/1 59/11/1 57/12/1
f 58/9/1 60/10/1 61/11/1 59/12/1
f 60/9/1 62/10/1 63/11/1 61/12/1
f 62/9/1 64/10/1 65/11/1 63/12/1
f 64/9/1 66/10/1 67/11/1 65/12/1
f 66/9/1 68/10/1 69/11/1 67/12/1
f 68/9/1 70/10/1 71/11/1 69/12/1
f 70/9/1 72/10/1 73/11/1 71/12/1
f 72/9/1 74/10/1 75/11/1 73/12/1
f 74/9/1 76/10/1 77/11/1 75/12/1
f 76/9/1 78/10/1 79/11/1 77/12/1
f 78/9/1 80/10/1 81/11/1 79/12/1
f 80/9/1 82/10/1 83/11/1 81/12/1
f 82/9/1 84/10/1 85/11/1 83/12/1
f 84/9/1 86/10/1 87/11/1 85/12/1
f 86/9/1 88/10/1 89/11/1 87/12/1
f 88/9/1 90/10/1 91/11/1 89/12/1
f 90/9/1 92/10/1 93/11/1 91/12/1
f 92/9/1 94/10/1 95/11/1 93/12/1
f 94/9/1 96/10/1 97/11/1 95/12/1
f 98/9/1 99/10/1 49/11/1 48/12/1
f 100/9/1 101/10/1 96/11/1 94/12/1
f 102/9/1 103/10/1 99/11/1 98/12/1
f 104/9/1 105/10/1 101/11/1 100/12/1
f 106/9/1 107/10/1 103/11/1 102/12/1
f 108/9/1 109/10/1 105/11/1 104/12/1
f 110/9/1 111/10/1 107/11/1 106/12/1
f 112/9/1 113/10/1 109/11/1 108/12/1
f 1/9/1 114/10/1 111/11/1 110/12/1
f 115/9/1 5/10/1 113/11/1 112/12/1
f 116/9/1 117/10/1 114/11/1 1/12/1
f 118/13/1 119/14/1 120/15/1 2/16/1
f 119/13/1 121/14/1 122/15/1 120/16/1
f 121/13/1 123/14/1 124/15/1 122/16/1
f 125/9/1 126/10/1 5/11/1 115/12/1
f 127/9/1 128/10/1 117/11/1 116/12/1
f 129/9/1 130/10/1 126/11/1 125/12/1
f 131/9/1 132/10/1 128/11/1 127/12/1
f 133/9/1 134/10/1 130/11/1 129/12/1
f 135/9/1 136/10/1 132/11/1 131/12/1
f 137/9/1 138/10/1 134/11/1 133/12/1
f 139/9/1 140/10/1 136/11/1 135/12/1
f 141/13/1 142/14/1 29/15/1 28/16/1
f 142/13/1 143/14/1 30/15/1 29/16/1
f 143/13/1 144/14/1 31/15/1 30/16/1
f 145/13/1 146/14/1 147/15/1 148/16/1
f 146/13/1 149/14/1 150/15/1 147/16/1
f 149/13/1 151/14/1 137/15/1 150/16/1
f 151/9/1 152/10/1 138/11/1 137/12/1
f 153/9/1 154/10/1 140/11/1 139/12/1
f 155/13/1 156/14/1 146/15/1 145/16/1
f 156/13/1 157/14/1 149/15/1 146/16/1
f 157/13/1 158/14/1 151/15/1 149/16/1
f 158/9/1 159/10/1 152/11/1 151/12/1
f 160/9/1 161/10/1 154/11/1 153/12/1
f 162/13/1 163/14/1 156/15/1 155/16/1
f 163/13/1 164/14/1 157/15/1 156/16/1
f 164/13/1 165/14/1 158/15/1 157/16/1
f 165/9/1 166/10/1 159/11/1 158/12/1
f 7/9/1 167/10/1 161/11/1 160/12/1
f 168/13/1 169/14/1 163/15/1 162/16/1
f 169/13/1 170/14/1 164/15/1 163/16/1
f 170/13/1 171/14/1 165/15/1 164/16/1
f 171/9/1 9/10/1 166/11/1 165/12/1
f 172/9/1 173/10/1 167/11/1 7/12/1
f 174/13/1 175/14/1 176/15/1 8/16/1
f 175/13/1 177/14/1 178/15/1 176/16/1
f 179/13/1 180/14/1 181/15/1 182/16/1
f 180/13/1 183/14/1 184/15/1 181/16/1
f 183/13/1 185/14/1 168/15/1 184/16/1
f 185/13/1 186/14/1 169/15/1 168/16/1
f 186/13/1 187/14/1 170/15/1 169/16/1
f 187/13/1 188/14/1 171/15/1 170/16/1
f 188/9/1 189/10/1 9/11/1 171/12/1
f 190/9/1 191/10/1 173/11/1 172/12/1
f 192/13/1 193/14/1 187/15/1 186/16/1
f 193/13/1 194/14/1 188/15/1 187/16/1
f 194/9/1 195/10/1 189/11/1 188/12/1
f 196/9/1 197/10/1 191/11/1 190/12/1
f 198/9/1 199/10/1 195/11/1 194/12/1
f 200/9/1 201/10/1 197/11/1 196/12/1
f 202/9/1 203/10/1 199/11/1 198/12/1
f 204/9/1 205/10/1 201/11/1 200/12/1
f 206/9/1 207/10/1 203/11/1 202/12/1
f 208/9/1 209/10/1 205/11/1 204/12/1
f 210/13/1 211/14/1 212/15/1 213/16/1
f 211/13/1 214/14/1 215/15/1 212/16/1
f 214/13/1 216/14/1 217/15/1 215/16/1
f 218/9/1 219/10/1 207/11/1 206/12/1
f 220/9/1 221/10/1 209/11/1 208/12/1
f 222/13/1 223/14/1 224/15/1 225/16/1
f 223/13/1 226/14/1 227/15/1 224/16/1
f 226/13/1 228/14/1 229/15/1 227/16/1
f 230/9/1 231/10/1 219/11/1 218/12/1
f 10/9/1 232/10/1 221/11/1 220/12/1
f 233/9/1 12/10/1 231/11/1 230/12/1
f 234/9/1 235/10/1 232/11/1 10/12/1
f 236/9/1 237/10/1 12/11/1 233/12/1
f 238/9/1 239/10/1 235/11/1 234/12/1
f 240/9/1 241/10/1 237/11/1 236/12/1
f 242/9/1 243/10/1 239/11/1 238/12/1
f 244/9/1 245/10/1 241/11/1 240/12/1
f 246/9/1 247/10/1 243/11/1 242/12/1
f 248/13/1 249/14/1 250/15/1 251/16/1
f 249/13/1 252/14/1 253/15/1 250/16/1
f 252/13/1 254/14/1 255/15/1 253/16/1
f 256/9/1 257/10/1 245/11/1 244/12/1
f 258/9/1 259/10/1 247/11/1 246/12/1
f 260/9/1 261/10/1 257/11/1 256/12/1
f 262/9/1 263/10/1 259/11/1 258/12/1
f 264/9/1 265/10/1 261/11/1 260/12/1
f 266/9/1 267/10/1 263/11/1 262/12/1
f 268/9/1 269/10/1 265/11/1 264/12/1
f 13/9/1 270/10/1 267/11/1 266/12/1
f 270/9/1 271/10/1 272/11/1 267/12/1
f 271/9/1 273/10/1 274/11/1 272/12/1
f 273/9/1 275/10/1 276/11/1 274/12/1
f 275/9/1 277/10/1 278/11/1 276/12/1
f 277/9/1 279/10/1 280/11/1 278/12/1
f 279/9/1 281/10/1 282/11/1 280/12/1
f 281/9/1 283/10/1 284/11/1 282/12/1
f 283/9/1 285/10/1 286/11/1 284/12/1
f 285/9/1 287/10/1 288/11/1 286/12/1
f 287/9/1 289/10/1 290/11/1 288/12/1
f 289/9/1 14/10/1 291/11/1 290/12/1
f 14/9/1 292/10/1 293/11/1 291/12/1
f 292/9/1 294/10/1 295/11/1 293/12/1
f 294/9/1 296/10/1 297/11/1 295/12/1
f 296/9/1 298/10/1 299/11/1 297/12/1
f 298/9/1 300/10/1 301/11/1 299/12/1
f 300/9/1 302/10/1 303/11/1 301/12/1
f 302/9/1 304/10/1 44/11/1 303/12/1
f 304/9/1 305/10/1 45/11/1 44/12/1
f 305/9/1 306/10/1 46/11/1 45/12/1
f 306/9/1 307/10/1 47/11/1 46/12/1
f 307/9/1 308/10/1 268/11/1 47/12/1
f 308/9/1 15/10/1 269/11/1 268/12/1

