# Tiled2Unity generated file. Do not modify by hand.
# Wavefront file for 'upper_basement_mesh_0003.obj'

# Vertices (Count = 32)
v -1800 -288 0
v -1840 -288 0
v -1840 -264 0
v -1800 -264 0
v -1840 -312 0
v -1880 -312 0
v -1880 -288 0
v -1840 -288 0
v -1904 -400 0
v -1944 -400 0
v -1944 -376 0
v -1904 -376 0
v -1864 -424 0
v -1904 -424 0
v -1904 -400 0
v -1864 -400 0
v -1792 -512 0
v -1832 -512 0
v -1832 -488 0
v -1792 -488 0
v -1832 -536 0
v -1872 -536 0
v -1872 -512 0
v -1832 -512 0
v -1872 -560 0
v -1912 -560 0
v -1912 -536 0
v -1872 -536 0
v -1912 -584 0
v -1952 -584 0
v -1952 -560 0
v -1912 -560 0

# Texture cooridinates (Count = 6)
vt 0 0.90625
vt 0.15625 0.90625
vt 0.15625 1
vt 0 1
vt 0.3125 0.90625
vt 0.3125 1

# Normal
vn 0 0 -1

# Mesh description
g upper_basement_mesh_0003

# Faces
f 1/1/1 2/2/1 3/3/1 4/4/1
f 5/1/1 6/2/1 7/3/1 8/4/1
f 9/2/1 10/5/1 11/6/1 12/3/1
f 13/2/1 14/5/1 15/6/1 16/3/1
f 17/1/1 18/2/1 19/3/1 20/4/1
f 21/1/1 22/2/1 23/3/1 24/4/1
f 25/1/1 26/2/1 27/3/1 28/4/1
f 29/1/1 30/2/1 31/3/1 32/4/1

