# Tiled2Unity generated file. Do not modify by hand.
# Wavefront file for 'house_elevator_shaft_mesh_0002.obj'

# Vertices (Count = 288)
v -584 -184 0
v -592 -184 0
v -592 -176 0
v -584 -176 0
v -592 -184 0
v -600 -184 0
v -600 -176 0
v -592 -176 0
v -600 -184 0
v -608 -184 0
v -608 -176 0
v -600 -176 0
v -608 -184 0
v -616 -184 0
v -616 -176 0
v -608 -176 0
v -616 -184 0
v -624 -184 0
v -624 -176 0
v -616 -176 0
v -624 -184 0
v -632 -184 0
v -632 -176 0
v -624 -176 0
v -584 -192 0
v -592 -192 0
v -592 -184 0
v -584 -184 0
v -592 -192 0
v -600 -192 0
v -600 -184 0
v -592 -184 0
v -600 -192 0
v -608 -192 0
v -608 -184 0
v -600 -184 0
v -608 -192 0
v -616 -192 0
v -616 -184 0
v -608 -184 0
v -616 -192 0
v -624 -192 0
v -624 -184 0
v -616 -184 0
v -624 -192 0
v -632 -192 0
v -632 -184 0
v -624 -184 0
v -584 -200 0
v -592 -200 0
v -592 -192 0
v -584 -192 0
v -592 -200 0
v -600 -200 0
v -600 -192 0
v -592 -192 0
v -600 -200 0
v -608 -200 0
v -608 -192 0
v -600 -192 0
v -608 -200 0
v -616 -200 0
v -616 -192 0
v -608 -192 0
v -616 -200 0
v -624 -200 0
v -624 -192 0
v -616 -192 0
v -624 -200 0
v -632 -200 0
v -632 -192 0
v -624 -192 0
v -584 -208 0
v -592 -208 0
v -592 -200 0
v -584 -200 0
v -592 -208 0
v -600 -208 0
v -600 -200 0
v -592 -200 0
v -600 -208 0
v -608 -208 0
v -608 -200 0
v -600 -200 0
v -608 -208 0
v -616 -208 0
v -616 -200 0
v -608 -200 0
v -616 -208 0
v -624 -208 0
v -624 -200 0
v -616 -200 0
v -624 -208 0
v -632 -208 0
v -632 -200 0
v -624 -200 0
v -584 -216 0
v -592 -216 0
v -592 -208 0
v -584 -208 0
v -592 -216 0
v -600 -216 0
v -600 -208 0
v -592 -208 0
v -600 -216 0
v -608 -216 0
v -608 -208 0
v -600 -208 0
v -608 -216 0
v -616 -216 0
v -616 -208 0
v -608 -208 0
v -616 -216 0
v -624 -216 0
v -624 -208 0
v -616 -208 0
v -624 -216 0
v -632 -216 0
v -632 -208 0
v -624 -208 0
v -584 -224 0
v -592 -224 0
v -592 -216 0
v -584 -216 0
v -592 -224 0
v -600 -224 0
v -600 -216 0
v -592 -216 0
v -600 -224 0
v -608 -224 0
v -608 -216 0
v -600 -216 0
v -608 -224 0
v -616 -224 0
v -616 -216 0
v -608 -216 0
v -616 -224 0
v -624 -224 0
v -624 -216 0
v -616 -216 0
v -624 -224 0
v -632 -224 0
v -632 -216 0
v -624 -216 0
v -584 -1768 0
v -592 -1768 0
v -592 -1760 0
v -584 -1760 0
v -592 -1768 0
v -600 -1768 0
v -600 -1760 0
v -592 -1760 0
v -600 -1768 0
v -608 -1768 0
v -608 -1760 0
v -600 -1760 0
v -608 -1768 0
v -616 -1768 0
v -616 -1760 0
v -608 -1760 0
v -616 -1768 0
v -624 -1768 0
v -624 -1760 0
v -616 -1760 0
v -624 -1768 0
v -632 -1768 0
v -632 -1760 0
v -624 -1760 0
v -584 -1776 0
v -592 -1776 0
v -592 -1768 0
v -584 -1768 0
v -592 -1776 0
v -600 -1776 0
v -600 -1768 0
v -592 -1768 0
v -600 -1776 0
v -608 -1776 0
v -608 -1768 0
v -600 -1768 0
v -608 -1776 0
v -616 -1776 0
v -616 -1768 0
v -608 -1768 0
v -616 -1776 0
v -624 -1776 0
v -624 -1768 0
v -616 -1768 0
v -624 -1776 0
v -632 -1776 0
v -632 -1768 0
v -624 -1768 0
v -584 -1784 0
v -592 -1784 0
v -592 -1776 0
v -584 -1776 0
v -592 -1784 0
v -600 -1784 0
v -600 -1776 0
v -592 -1776 0
v -600 -1784 0
v -608 -1784 0
v -608 -1776 0
v -600 -1776 0
v -608 -1784 0
v -616 -1784 0
v -616 -1776 0
v -608 -1776 0
v -616 -1784 0
v -624 -1784 0
v -624 -1776 0
v -616 -1776 0
v -624 -1784 0
v -632 -1784 0
v -632 -1776 0
v -624 -1776 0
v -584 -1792 0
v -592 -1792 0
v -592 -1784 0
v -584 -1784 0
v -592 -1792 0
v -600 -1792 0
v -600 -1784 0
v -592 -1784 0
v -600 -1792 0
v -608 -1792 0
v -608 -1784 0
v -600 -1784 0
v -608 -1792 0
v -616 -1792 0
v -616 -1784 0
v -608 -1784 0
v -616 -1792 0
v -624 -1792 0
v -624 -1784 0
v -616 -1784 0
v -624 -1792 0
v -632 -1792 0
v -632 -1784 0
v -624 -1784 0
v -584 -1800 0
v -592 -1800 0
v -592 -1792 0
v -584 -1792 0
v -592 -1800 0
v -600 -1800 0
v -600 -1792 0
v -592 -1792 0
v -600 -1800 0
v -608 -1800 0
v -608 -1792 0
v -600 -1792 0
v -608 -1800 0
v -616 -1800 0
v -616 -1792 0
v -608 -1792 0
v -616 -1800 0
v -624 -1800 0
v -624 -1792 0
v -616 -1792 0
v -624 -1800 0
v -632 -1800 0
v -632 -1792 0
v -624 -1792 0
v -584 -1808 0
v -592 -1808 0
v -592 -1800 0
v -584 -1800 0
v -592 -1808 0
v -600 -1808 0
v -600 -1800 0
v -592 -1800 0
v -600 -1808 0
v -608 -1808 0
v -608 -1800 0
v -600 -1800 0
v -608 -1808 0
v -616 -1808 0
v -616 -1800 0
v -608 -1800 0
v -616 -1808 0
v -624 -1808 0
v -624 -1800 0
v -616 -1800 0
v -624 -1808 0
v -632 -1808 0
v -632 -1800 0
v -624 -1800 0

# Texture cooridinates (Count = 12)
vt 0.9166667 0
vt 1 0
vt 1 0.08333331
vt 0.9166667 0.08333331
vt 0 0.8333333
vt 0.08333334 0.8333333
vt 0.08333334 0.9166667
vt 0 0.9166667
vt 0.9166667 0.1666667
vt 1 0.1666667
vt 1 0.25
vt 0.9166667 0.25

# Normal
vn 0 0 -1

# Mesh description
g house_elevator_shaft_mesh_0002

# Faces
f 1/1/1 2/2/1 3/3/1 4/4/1
f 5/1/1 6/2/1 7/3/1 8/4/1
f 9/1/1 10/2/1 11/3/1 12/4/1
f 13/1/1 14/2/1 15/3/1 16/4/1
f 17/1/1 18/2/1 19/3/1 20/4/1
f 21/1/1 22/2/1 23/3/1 24/4/1
f 25/1/1 26/2/1 27/3/1 28/4/1
f 29/5/1 30/6/1 31/7/1 32/8/1
f 33/5/1 34/6/1 35/7/1 36/8/1
f 37/5/1 38/6/1 39/7/1 40/8/1
f 41/5/1 42/6/1 43/7/1 44/8/1
f 45/1/1 46/2/1 47/3/1 48/4/1
f 49/1/1 50/2/1 51/3/1 52/4/1
f 53/5/1 54/6/1 55/7/1 56/8/1
f 57/5/1 58/6/1 59/7/1 60/8/1
f 61/5/1 62/6/1 63/7/1 64/8/1
f 65/5/1 66/6/1 67/7/1 68/8/1
f 69/1/1 70/2/1 71/3/1 72/4/1
f 73/1/1 74/2/1 75/3/1 76/4/1
f 77/5/1 78/6/1 79/7/1 80/8/1
f 81/5/1 82/6/1 83/7/1 84/8/1
f 85/5/1 86/6/1 87/7/1 88/8/1
f 89/5/1 90/6/1 91/7/1 92/8/1
f 93/1/1 94/2/1 95/3/1 96/4/1
f 97/1/1 98/2/1 99/3/1 100/4/1
f 101/5/1 102/6/1 103/7/1 104/8/1
f 105/5/1 106/6/1 107/7/1 108/8/1
f 109/5/1 110/6/1 111/7/1 112/8/1
f 113/5/1 114/6/1 115/7/1 116/8/1
f 117/1/1 118/2/1 119/3/1 120/4/1
f 121/1/1 122/2/1 123/3/1 124/4/1
f 125/1/1 126/2/1 127/3/1 128/4/1
f 129/1/1 130/2/1 131/3/1 132/4/1
f 133/1/1 134/2/1 135/3/1 136/4/1
f 137/1/1 138/2/1 139/3/1 140/4/1
f 141/1/1 142/2/1 143/3/1 144/4/1
f 145/9/1 146/10/1 147/11/1 148/12/1
f 149/9/1 150/10/1 151/11/1 152/12/1
f 153/9/1 154/10/1 155/11/1 156/12/1
f 157/9/1 158/10/1 159/11/1 160/12/1
f 161/9/1 162/10/1 163/11/1 164/12/1
f 165/9/1 166/10/1 167/11/1 168/12/1
f 169/9/1 170/10/1 171/11/1 172/12/1
f 173/5/1 174/6/1 175/7/1 176/8/1
f 177/5/1 178/6/1 179/7/1 180/8/1
f 181/5/1 182/6/1 183/7/1 184/8/1
f 185/5/1 186/6/1 187/7/1 188/8/1
f 189/9/1 190/10/1 191/11/1 192/12/1
f 193/9/1 194/10/1 195/11/1 196/12/1
f 197/5/1 198/6/1 199/7/1 200/8/1
f 201/5/1 202/6/1 203/7/1 204/8/1
f 205/5/1 206/6/1 207/7/1 208/8/1
f 209/5/1 210/6/1 211/7/1 212/8/1
f 213/9/1 214/10/1 215/11/1 216/12/1
f 217/9/1 218/10/1 219/11/1 220/12/1
f 221/5/1 222/6/1 223/7/1 224/8/1
f 225/5/1 226/6/1 227/7/1 228/8/1
f 229/5/1 230/6/1 231/7/1 232/8/1
f 233/5/1 234/6/1 235/7/1 236/8/1
f 237/9/1 238/10/1 239/11/1 240/12/1
f 241/9/1 242/10/1 243/11/1 244/12/1
f 245/5/1 246/6/1 247/7/1 248/8/1
f 249/5/1 250/6/1 251/7/1 252/8/1
f 253/5/1 254/6/1 255/7/1 256/8/1
f 257/5/1 258/6/1 259/7/1 260/8/1
f 261/9/1 262/10/1 263/11/1 264/12/1
f 265/9/1 266/10/1 267/11/1 268/12/1
f 269/9/1 270/10/1 271/11/1 272/12/1
f 273/9/1 274/10/1 275/11/1 276/12/1
f 277/9/1 278/10/1 279/11/1 280/12/1
f 281/9/1 282/10/1 283/11/1 284/12/1
f 285/9/1 286/10/1 287/11/1 288/12/1

